<svg xml:space="preserve" viewBox="0 0 2872.579 1577.153" height="1577.153px" width="2872.579px" y="0px" x="0px" xmlns:xlink="http://www.w3.org/1999/xlink" xmlns="http://www.w3.org/2000/svg" id="Layer_1" version="1.1">
<g>
	<title>Artboard 1</title>
	<polygon points="711.356,21.509 2259.198,21.509 2259.198,1555.901 711.356,1555.901 5.898,788.705"></polygon>
	<path d="M726.724,10.259h2124.607c6.213,0,11.25,5.037,11.25,11.25l0,0v1534.394c0,6.213-5.037,11.25-11.25,11.25
		l0,0H726.724c-3.121,0.004-6.104-1.287-8.231-3.566L13.032,795.292c-4.043-4.324-4.043-11.04,0-15.364L718.491,11.633
		C720.958,10.135,723.905,9.644,726.724,10.259z" fill="#FDB913"></path>
	<rect height="1548.166" width="573.063" fill="#FFFFFF" y="13.858" x="2287.043"></rect>
	
		<path d="M1611.103,1091.557c-0.641-6.27-2.023-12.439-4.115-18.383c-1.365-3.924-3.729-7.424-6.859-10.154
		c-2.545-2.113-5.746-3.277-9.055-3.291h-252.166V845.704h211.83c3.268,0.02,6.451-1.041,9.055-3.018
		c3.164-2.475,5.545-5.809,6.859-9.604c2.121-5.748,3.504-11.74,4.115-17.836c1.705-18.254,1.705-36.625,0-54.879
		c-0.604-6.186-1.986-12.27-4.115-18.109c-1.383-3.836-3.748-7.242-6.859-9.879c-2.533-2.135-5.742-3.301-9.055-3.291h-211.83
		V542.775h250.52c3.236,0.043,6.369-1.133,8.779-3.293c2.969-2.814,5.227-6.293,6.586-10.152c2.098-5.943,3.479-12.113,4.115-18.385
		c0.973-9.113,1.43-18.274,1.373-27.438c0.092-9.714-0.365-19.425-1.373-29.086c-0.936-6.386-2.592-12.646-4.938-18.658
		c-1.24-3.916-3.516-7.424-6.586-10.152c-2.488-1.996-5.592-3.063-8.781-3.019h-349.574c-11.189-0.309-22.045,3.837-30.182,11.524
		c-9.131,10.178-13.605,23.701-12.348,37.317v661.281c-1.258,13.617,3.217,27.141,12.348,37.318
		c8.137,7.688,18.992,11.832,30.182,11.523h352.318c3.313,0.01,6.521-1.158,9.055-3.293c3.131-2.729,5.496-6.229,6.859-10.152
		c2.098-5.941,3.48-12.113,4.117-18.383c1.771-18.893,1.771-37.908,0-56.799L1611.103,1091.557z" stroke-miterlimit="10" stroke-linejoin="round" stroke-linecap="round" stroke-width="15" stroke="#000000" fill="#FFFFFF"></path>
	<g>
		<path d="M2763.329,489.191l-146.225-365.186c-1.063-2.656-3.637-4.396-6.498-4.396h-78.072c-2.887,0-5.479,1.771-6.521,4.459
			l-142.428,365.668c-0.84,2.151-0.563,4.583,0.744,6.489c1.305,1.907,3.467,3.051,5.775,3.051h78.322
			c2.945,0,5.574-1.844,6.58-4.609l28.506-78.452h136.457l30.199,78.573c1.041,2.704,3.639,4.488,6.535,4.488h80.318
			c0.006,0.001,0.014,0,0.02,0c3.865,0,7-3.136,7-7C2764.043,491.17,2763.788,490.122,2763.329,489.191z M2611.016,340.607h-79.711
			l39.457-108.406L2611.016,340.607z"></path>
		<path d="M2744.553,1269.918h-159.141c-3.865,0-7,3.133-7,7v61.609c0,3.863,3.135,7,7,7h77.561v35.904
			c-10.027,7.338-21.98,13.732-35.58,19.043c-14.658,5.725-29.455,8.625-43.977,8.625c-29.439,0-52.529-9.881-70.598-30.201
			c-18.021-20.275-27.166-51.566-27.166-93.002c0-38.23,8.98-67.258,26.688-86.273c17.818-19.145,41.313-28.449,71.828-28.449
			c19.664,0,36.188,4.791,49.121,14.24c13.047,9.539,21.701,22.234,26.463,38.809c0.996,3.473,4.467,5.613,8.016,4.949
			l73.332-13.719c1.861-0.35,3.5-1.439,4.547-3.012c1.047-1.578,1.408-3.516,1.006-5.359c-7.654-35.127-25.121-63.074-51.918-83.066
			c-26.643-19.871-63.844-29.947-110.566-29.947c-35.885,0-66.424,6.391-90.748,18.98c-31.898,16.383-56.479,40.271-73.055,70.998
			c-16.445,30.496-24.785,65.771-24.785,104.844c0,35.986,7.449,69.775,22.141,100.43c14.863,31.027,37.396,55.225,66.979,71.916
			c29.359,16.57,64.17,24.973,103.463,24.973c30.816,0,61.674-5.908,91.703-17.561c30.086-11.676,53.488-25.479,69.561-41.029
			c1.359-1.318,2.133-3.133,2.133-5.029v-145.67C2751.553,1273.051,2748.417,1269.918,2744.553,1269.918z"></path>
	</g>
	<path d="M2684.872,704.895l-92.449-92.446c-4.998-5-11.775-7.81-18.848-7.81c-7.074,0-13.854,2.81-18.848,7.81l-92.449,92.446
		c-10.408,10.41-10.408,27.287,0,37.697c10.41,10.408,27.287,10.408,37.697,0l46.941-46.942v268.81
		c0,14.721,11.938,26.654,26.654,26.654c14.721,0,26.656-11.936,26.656-26.654V695.646l46.943,46.942
		c5.205,5.205,12.023,7.81,18.85,7.81c6.82,0,13.646-2.605,18.852-7.81C2695.282,732.182,2695.282,715.305,2684.872,704.895z"></path>
	<path d="M726.724,10.259h2124.607c6.213,0,11.25,5.037,11.25,11.25l0,0v1534.394c0,6.213-5.037,11.25-11.25,11.25l0,0H726.724
		c-3.121,0.004-6.104-1.287-8.231-3.566L13.032,795.292c-4.043-4.324-4.043-11.04,0-15.364L718.491,11.633
		C720.958,10.135,723.905,9.644,726.724,10.259z" stroke-miterlimit="10" stroke-linejoin="round" stroke-linecap="round" stroke-width="20" stroke="#000000" fill="none"></path>
</g>
</svg>
