<svg xml:space="preserve" viewBox="0 0 2872.579 1577.153" height="1577.153px" width="2872.579px" y="0px" x="0px" xmlns:xlink="http://www.w3.org/1999/xlink" xmlns="http://www.w3.org/2000/svg" id="Layer_1" version="1.1">
<g>
	<title>Artboard 1</title>
	<polygon points="711.356,21.509 2259.197,21.509 2259.197,1555.901 711.356,1555.901 5.898,788.705"></polygon>
	<path d="M726.724,10.259H2851.33c6.213,0,11.25,5.037,11.25,11.25l0,0v1534.394c0,6.213-5.037,11.25-11.25,11.25
		l0,0H726.724c-3.121,0.004-6.104-1.287-8.232-3.566L13.032,795.292c-4.043-4.324-4.043-11.04,0-15.364L718.491,11.633
		C720.958,10.135,723.905,9.644,726.724,10.259z" fill="#00A651"></path>
	<rect height="1548.166" width="573.063" fill="#FFFFFF" y="13.858" x="2287.043"></rect>
	
		<path d="M1491.176,890.504h-198.935l99.057-322.409l0,0L1491.176,890.504z M1497.211,451.479c-1.65-6.26-4.342-12.193-7.957-17.563
		c-3.814-4.797-9.129-8.178-15.092-9.604c-9.674-2.572-19.625-3.955-29.633-4.115c-12.622,0-29.634,0-51.036,0
		c-18.293,0-33.111,0-44.451,0c-9.295,0.082-18.531,1.467-27.438,4.115c-5.428,1.618-10.221,4.879-13.721,9.328
		c-3.34,4.992-5.928,10.446-7.684,16.189l-213.752,674.451c-3.668,10.725-6.422,21.738-8.23,32.928
		c-1.408,6.57-0.018,13.432,3.844,18.934c5.086,5.338,12.105,8.402,19.479,8.506c12.945,1.291,25.955,1.842,38.965,1.646
		c15.365,0,27.438,0,37.592,0c7.584-0.365,15.072-1.846,22.227-4.391c4.566-1.695,8.496-4.766,11.25-8.781
		c2.594-4.262,4.533-8.885,5.764-13.719l44.449-148.445h263.692l47.193,152.563c1.115,4.396,2.975,8.57,5.486,12.348
		c2.842,3.631,6.793,6.232,11.25,7.408c7.697,2.123,15.619,3.318,23.598,3.566c10.244,0,24.605,0,43.08,0
		c17.836,0,31.557,0,41.707-1.373c7.721-0.049,15.184-2.762,21.129-7.682c4.236-5.115,5.857-11.908,4.393-18.385
		c-1.881-11.355-4.633-22.545-8.23-33.479L1497.211,451.479z" stroke-miterlimit="10" stroke-linejoin="round" stroke-linecap="round" stroke-width="15" stroke="#000000" fill="#FFFFFF"></path>
	<g>
		<path d="M2763.328,489.191l-146.223-365.185c-1.064-2.656-3.637-4.396-6.498-4.396h-78.074c-2.885,0-5.477,1.771-6.521,4.459
			l-142.428,365.668c-0.84,2.152-0.561,4.583,0.744,6.49s3.467,3.05,5.777,3.05h78.322c2.945,0,5.574-1.843,6.58-4.609
			l28.506-78.452h136.457l30.199,78.573c1.041,2.704,3.639,4.488,6.535,4.488h80.318c0.006,0.001,0.014,0,0.02,0
			c3.865,0,7-3.135,7-7C2764.043,491.17,2763.787,490.122,2763.328,489.191z M2611.016,340.607h-79.711l39.457-108.406
			L2611.016,340.607z"></path>
		<path d="M2744.553,1269.918h-159.141c-3.865,0-7,3.133-7,7v61.609c0,3.865,3.135,7,7,7h77.561v35.906
			c-10.027,7.336-21.98,13.732-35.58,19.043c-14.658,5.723-29.455,8.625-43.977,8.625c-29.438,0-52.529-9.881-70.596-30.203
			c-18.023-20.275-27.166-51.566-27.166-93.002c0-38.23,8.979-67.256,26.686-86.273c17.818-19.145,41.313-28.449,71.828-28.449
			c19.664,0,36.189,4.791,49.121,14.24c13.047,9.539,21.701,22.234,26.463,38.809c0.996,3.473,4.467,5.613,8.016,4.949
			l73.332-13.719c1.861-0.35,3.5-1.438,4.547-3.012c1.047-1.578,1.408-3.514,1.006-5.359c-7.654-35.127-25.121-63.074-51.918-83.066
			c-26.643-19.871-63.844-29.947-110.566-29.947c-35.885,0-66.424,6.391-90.748,18.98c-31.9,16.383-56.48,40.271-73.055,70.998
			c-16.445,30.496-24.785,65.771-24.785,104.844c0,35.986,7.449,69.775,22.139,100.43c14.865,31.027,37.398,55.225,66.979,71.916
			c29.359,16.57,64.17,24.973,103.463,24.973c30.816,0,61.674-5.908,91.703-17.561c30.086-11.676,53.488-25.479,69.561-41.029
			c1.359-1.318,2.133-3.133,2.133-5.029v-145.67C2751.553,1273.051,2748.416,1269.918,2744.553,1269.918z"></path>
	</g>
	<line y2="629.285" x2="2565.691" y1="956.358" x1="2565.691" fill="none"></line>
	<path d="M2684.871,704.895l-92.449-92.447c-4.998-5-11.775-7.809-18.848-7.809s-13.852,2.809-18.848,7.809l-92.449,92.447
		c-10.408,10.41-10.408,27.287,0,37.697c10.41,10.408,27.287,10.408,37.697,0l46.943-46.943v268.811
		c0,14.721,11.936,26.654,26.654,26.654c14.721,0,26.656-11.936,26.656-26.654V695.646l46.943,46.943
		c5.205,5.205,12.023,7.809,18.85,7.809c6.82,0,13.645-2.605,18.85-7.809C2695.281,732.182,2695.281,715.305,2684.871,704.895z"></path>
	<path d="M726.724,10.259H2851.33c6.213,0,11.25,5.037,11.25,11.25l0,0v1534.394c0,6.213-5.037,11.25-11.25,11.25l0,0H726.724
		c-3.121,0.004-6.104-1.287-8.232-3.566L13.032,795.292c-4.043-4.324-4.043-11.04,0-15.364L718.491,11.633
		C720.958,10.135,723.905,9.644,726.724,10.259z" stroke-miterlimit="10" stroke-linejoin="round" stroke-linecap="round" stroke-width="20" stroke="#000000" fill="none"></path>
</g>
</svg>
