<svg xml:space="preserve" viewBox="0 0 2872.579 1577.153" height="1577.153px" width="2872.579px" y="0px" x="0px" xmlns:xlink="http://www.w3.org/1999/xlink" xmlns="http://www.w3.org/2000/svg" id="Layer_1" version="1.1">
<g>
	<title>Artboard 1</title>
	<polygon points="711.356,21.509 2259.198,21.509 2259.198,1555.901 711.356,1555.901 5.898,788.705"></polygon>
	<path d="M726.724,10.259h2124.607c6.213,0,11.25,5.037,11.25,11.25l0,0v1534.394c0,6.213-5.037,11.25-11.25,11.25
		l0,0H726.724c-3.121,0.004-6.104-1.287-8.231-3.566L13.032,795.292c-4.043-4.324-4.043-11.04,0-15.364L718.491,11.633
		C720.958,10.135,723.905,9.644,726.724,10.259z" fill="#ED1C24"></path>
	<rect height="1548.166" width="573.063" fill="#FFFFFF" y="13.858" x="2287.043"></rect>
	
		<path d="M1658.931,493.22c-1.475-8.439-5.061-16.368-10.426-23.049c-7.688-7.542-16.365-14.003-25.793-19.207
		c-14.705-8.517-30.244-15.504-46.373-20.854c-21.32-7.13-43.15-12.633-65.305-16.464c-27.184-4.708-54.729-7.003-82.316-6.859
		c-51.432-0.749-102.514,8.572-150.367,27.438c-43.877,17.583-83.256,44.773-115.244,79.573
		c-32.971,36.483-58.094,79.35-73.811,125.946c-18.084,53.92-26.898,110.514-26.066,167.379
		c-0.826,54.85,7.426,109.459,24.42,161.615c14.693,44.783,38.73,85.936,70.52,120.732c31.27,33.451,69.74,59.348,112.5,75.732
		c47.947,18.529,98.963,27.84,150.365,27.439c19.064-0.016,38.115-1.023,57.074-3.02c19.096-2.275,38.055-5.574,56.799-9.877
		c18.658-3.842,36.494-8.781,54.877-13.994c18.385-5.215,31.83-10.701,43.629-15.916c10.172-3.686,18.525-11.156,23.322-20.854
		c3.986-9.746,5.945-20.203,5.764-30.73v-301.83c0.107-7.049-0.816-14.074-2.744-20.854c-1.602-5.686-4.305-11-7.957-15.641
		c-3.172-4.037-7.203-7.318-11.799-9.604c-4.82-2.209-10.064-3.334-15.367-3.293h-238.719c-3.232-0.018-6.357,1.154-8.781,3.293
		c-2.957,2.715-5.217,6.104-6.586,9.877c-2.105,5.752-3.488,11.744-4.115,17.836c-0.525,9.139-0.525,18.301,0,27.439
		c-0.787,15.115,1.07,30.25,5.488,44.727c3.566,8.779,8.781,13.17,15.092,13.17h132.805v175.885
		c-13.541,7.887-28.141,13.801-43.354,17.561c-15.434,3.867-31.285,5.803-47.195,5.762c-30.566,0.379-60.896-5.406-89.178-17.012
		c-26.689-11.17-50.377-28.467-69.146-50.488c-20.242-24.186-35.447-52.174-44.725-82.316
		c-11.264-37.166-16.633-75.867-15.916-114.695c-0.434-36.631,4.844-73.105,15.641-108.111c9.402-30.563,24.689-58.992,45-83.688
		c19.094-23.35,43.195-42.105,70.52-54.879c28.947-13.098,60.424-19.657,92.195-19.208c28.26-0.397,56.436,3.205,83.688,10.702
		c21.232,5.967,41.967,13.582,62.014,22.773c14.432,6.578,28.371,14.189,41.707,22.775c6.596,5.334,14.428,8.92,22.773,10.426
		c3.111,0.078,6.141-0.998,8.508-3.018c2.891-2.777,4.977-6.285,6.035-10.152c1.943-6.439,3.23-13.059,3.842-19.756
		c0.977-9.756,1.436-19.557,1.373-29.36C1663.455,522.006,1661.892,507.485,1658.931,493.22z" stroke-miterlimit="10" stroke-linejoin="round" stroke-linecap="round" stroke-width="15" stroke="#000000" fill="#FFFFFF"></path>
	<g>
		<path d="M2763.329,489.191l-146.225-365.186c-1.063-2.656-3.637-4.396-6.498-4.396h-78.072c-2.887,0-5.479,1.771-6.521,4.459
			l-142.428,365.668c-0.84,2.151-0.563,4.583,0.744,6.489c1.305,1.907,3.467,3.051,5.775,3.051h78.322
			c2.945,0,5.574-1.844,6.58-4.609l28.506-78.452h136.457l30.199,78.573c1.041,2.704,3.639,4.488,6.535,4.488h80.318
			c0.006,0.001,0.014,0,0.02,0c3.865,0,7-3.136,7-7C2764.043,491.17,2763.788,490.122,2763.329,489.191z M2611.016,340.607h-79.711
			l39.457-108.406L2611.016,340.607z"></path>
		<path d="M2744.553,1269.918h-159.141c-3.865,0-7,3.133-7,7v61.609c0,3.863,3.135,7,7,7h77.561v35.904
			c-10.027,7.338-21.98,13.732-35.58,19.043c-14.658,5.725-29.455,8.625-43.977,8.625c-29.439,0-52.529-9.881-70.598-30.201
			c-18.021-20.275-27.166-51.566-27.166-93.002c0-38.23,8.98-67.258,26.688-86.273c17.818-19.145,41.313-28.449,71.828-28.449
			c19.664,0,36.188,4.791,49.121,14.24c13.047,9.539,21.701,22.234,26.463,38.809c0.996,3.473,4.467,5.613,8.016,4.949
			l73.332-13.719c1.861-0.35,3.5-1.439,4.547-3.012c1.047-1.578,1.408-3.516,1.006-5.359c-7.654-35.127-25.121-63.074-51.918-83.066
			c-26.643-19.871-63.844-29.947-110.566-29.947c-35.885,0-66.424,6.391-90.748,18.98c-31.898,16.383-56.479,40.271-73.055,70.998
			c-16.445,30.496-24.785,65.771-24.785,104.844c0,35.986,7.449,69.775,22.141,100.43c14.863,31.027,37.396,55.225,66.979,71.916
			c29.359,16.57,64.17,24.973,103.463,24.973c30.816,0,61.674-5.908,91.703-17.561c30.086-11.676,53.488-25.479,69.561-41.029
			c1.359-1.318,2.133-3.133,2.133-5.029v-145.67C2751.553,1273.051,2748.417,1269.918,2744.553,1269.918z"></path>
	</g>
	<path d="M2684.872,704.895l-92.449-92.446c-4.998-5-11.775-7.81-18.848-7.81c-7.074,0-13.854,2.81-18.848,7.81l-92.449,92.446
		c-10.408,10.41-10.408,27.287,0,37.697c10.41,10.408,27.287,10.408,37.697,0l46.941-46.942v268.81
		c0,14.721,11.938,26.654,26.654,26.654c14.721,0,26.656-11.936,26.656-26.654V695.646l46.943,46.942
		c5.205,5.205,12.023,7.81,18.85,7.81c6.82,0,13.646-2.605,18.852-7.81C2695.282,732.182,2695.282,715.305,2684.872,704.895z"></path>
	<path d="M726.724,10.259h2124.607c6.213,0,11.25,5.037,11.25,11.25l0,0v1534.394c0,6.213-5.037,11.25-11.25,11.25l0,0H726.724
		c-3.121,0.004-6.104-1.287-8.231-3.566L13.032,795.292c-4.043-4.324-4.043-11.04,0-15.364L718.491,11.633
		C720.958,10.135,723.905,9.644,726.724,10.259z" stroke-miterlimit="10" stroke-linejoin="round" stroke-linecap="round" stroke-width="20" stroke="#000000" fill="none"></path>
</g>
</svg>
