<svg xml:space="preserve" viewBox="1372.006 289.376 2872.581 1577.154" height="1577.154px" width="2872.581px" y="0px" x="0px" xmlns:xlink="http://www.w3.org/1999/xlink" xmlns="http://www.w3.org/2000/svg" id="Layer_1" version="1.1">
<polygon points="2083.363,310.885 3631.202,310.885 3631.202,1845.278 2083.363,1845.278 1377.904,1078.081"></polygon>
<path d="M2098.729,299.635h2124.607c6.213,0,11.25,5.037,11.25,11.25l0,0V1845.28c0,6.213-5.037,11.25-11.25,11.25
	l0,0H2098.729c-3.121,0.004-6.104-1.288-8.232-3.567l-705.459-768.294c-4.043-4.324-4.043-11.042,0-15.366l705.459-768.294
	C2092.964,299.511,2095.911,299.02,2098.729,299.635z" fill="#F37021"></path>
<rect height="1548.166" width="573.061" fill="#FFFFFF" y="303.234" x="3659.049"></rect>
<g>
	<path d="M4135.333,778.567L3989.11,413.383c-1.063-2.656-3.637-4.396-6.498-4.396h-78.074c-2.885,0-5.477,1.771-6.521,4.459
		L3755.59,779.113c-0.84,2.151-0.561,4.583,0.744,6.489c1.305,1.907,3.467,3.051,5.777,3.051h78.318c2.945,0,5.574-1.844,6.58-4.609
		l28.51-78.452h136.457l30.195,78.573c1.041,2.704,3.643,4.488,6.535,4.488h80.318c0.006,0.001,0.014,0,0.02,0c3.865,0,7-3.136,7-7
		C4136.049,780.546,4135.792,779.498,4135.333,778.567z M3983.02,629.983h-79.711l39.457-108.406L3983.02,629.983z"></path>
	<path d="M4116.557,1559.295h-159.139c-3.867,0-7,3.134-7,7v61.609c0,3.865,3.133,7,7,7h77.559v35.906
		c-10.027,7.336-21.979,13.731-35.58,19.043c-14.658,5.724-29.455,8.625-43.975,8.625c-29.438,0-52.531-9.881-70.596-30.202
		c-18.025-20.275-27.166-51.566-27.166-93.003c0-38.229,8.977-67.257,26.684-86.272c17.82-19.146,41.314-28.45,71.828-28.45
		c19.664,0,36.191,4.791,49.121,14.241c13.047,9.538,21.703,22.233,26.463,38.809c0.996,3.473,4.467,5.613,8.016,4.949l73.332-13.72
		c1.861-0.35,3.5-1.438,4.547-3.012c1.047-1.577,1.408-3.514,1.006-5.359c-7.654-35.126-25.121-63.073-51.918-83.066
		c-26.643-19.871-63.844-29.945-110.566-29.945c-35.885,0-66.424,6.39-90.748,18.979c-31.896,16.382-56.479,40.271-73.055,70.998
		c-16.445,30.496-24.785,65.771-24.785,104.843c0,35.987,7.449,69.776,22.143,100.431c14.863,31.026,37.395,55.226,66.979,71.916
		c29.359,16.569,64.17,24.974,103.463,24.974c30.816,0,61.672-5.908,91.703-17.562c30.086-11.677,53.486-25.479,69.559-41.028
		c1.361-1.318,2.133-3.134,2.133-5.03v-145.67C4123.557,1562.429,4120.422,1559.295,4116.557,1559.295z"></path>
</g>
<path d="M4056.877,994.27l-92.449-92.446c-4.998-4.999-11.777-7.81-18.848-7.81c-7.072,0-13.855,2.811-18.848,7.81l-92.449,92.446
	c-10.408,10.41-10.408,27.287,0,37.697c10.41,10.409,27.287,10.409,37.697,0l46.939-46.942v268.813
	c0,14.721,11.939,26.655,26.654,26.655c14.721,0,26.656-11.938,26.656-26.655V985.021l46.943,46.942
	c5.205,5.205,12.025,7.81,18.85,7.81c6.82,0,13.646-2.604,18.852-7.81C4067.286,1021.557,4067.286,1004.68,4056.877,994.27z"></path>
<path d="M2098.729,299.635h2124.607c6.213,0,11.25,5.037,11.25,11.25l0,0V1845.28c0,6.213-5.037,11.25-11.25,11.25l0,0H2098.729
	c-3.121,0.004-6.104-1.288-8.232-3.567l-705.459-768.294c-4.043-4.324-4.043-11.042,0-15.366l705.459-768.294
	C2092.964,299.511,2095.911,299.02,2098.729,299.635z" stroke-miterlimit="10" stroke-linejoin="round" stroke-linecap="round" stroke-width="20" stroke="#000000" fill="none"></path>
<title>Artboard 1</title>
<path d="M3031.487,713.416c-0.551-6.756-2.027-13.403-4.391-19.756c-1.418-4.055-3.768-7.721-6.859-10.701
	c-2.424-2.138-5.549-3.31-8.781-3.293h-329.269c-11.188-0.309-22.045,3.837-30.183,11.524
	c-9.032,10.223-13.405,23.739-12.073,37.315v688.995c-0.101,4.043,1.155,8.003,3.567,11.25c3.034,3.664,7.021,6.418,11.522,7.957
	c7.086,2.542,14.459,4.201,21.951,4.938c22.986,2.405,46.16,2.405,69.146,0c7.484-0.777,14.854-2.438,21.95-4.938
	c4.552-1.438,8.564-4.212,11.525-7.957c2.241-3.313,3.393-7.249,3.291-11.25V1134.88h215.124c3.23,0.017,6.355-1.155,8.779-3.293
	c3.094-2.98,5.441-6.646,6.859-10.701c2.295-6.277,3.77-12.826,4.391-19.48c1.857-19.528,1.857-39.19,0-58.72
	c-0.59-6.395-2.066-12.675-4.391-18.659c-1.447-3.803-3.803-7.192-6.859-9.878c-2.498-1.977-5.596-3.041-8.779-3.02h-215.397
	V807.258h229.393c3.275-0.004,6.428-1.283,8.777-3.565c2.979-2.972,5.314-6.521,6.859-10.429c2.361-6.163,3.84-12.63,4.391-19.207
	c0.533-9.871,0.533-19.764,0-29.635C3032.417,734.085,3032.233,723.733,3031.487,713.416z" stroke-miterlimit="10" stroke-linejoin="round" stroke-linecap="round" stroke-width="15" stroke="#000000" fill="#FFFFFF"></path>
</svg>
